# xmcd
#
# Track frame offsets: 
#        150
#        12812
#        24707
#        37927
#        52682
#        65455
#        77335
#        91175
#        101630
#        115137
#        127230
#        139280
#
# Disc length: 2026 seconds
#
# Revision: 1
# Processed by: cddbd v1.5.2PL0 Copyright (c) Steve Scherf et al.
# Submitted via: ExactAudioCopy v0.99pb4
#
DISCID=9107e80c
DTITLE=B.B. King - The Blues
DYEAR=2006
DGENRE=Blues
TTITLE0=Why Do Things Happen To Me
TTITLE1=Ruby Lee
TTITLE2=When My Heart Beats Like A Hammer
TTITLE3=Past Day
TTITLE4=Boogie Woogie Woman
TTITLE5=Early In The Morning
TTITLE6=I Want To Get Married
TTITLE7=That Ain't The Way To Do It
TTITLE8=Troubles, Troubles, Troubles
TTITLE9=Don't You Want A Man Like Me
TTITLE10=You Know I Go For You
TTITLE11=What Can I Do
EXTD=
EXTT0=
EXTT1=
EXTT2=
EXTT3=
EXTT4=
EXTT5=
EXTT6=
EXTT7=
EXTT8=
EXTT9=
EXTT10=
EXTT11=
PLAYORDER=
